<?xml version="1.0" encoding="UTF-8" standalone="no"?>
<!-- Generator: Adobe Illustrator 16.0.0, SVG Export Plug-In . SVG Version: 6.00 Build 0)  -->

<svg
   xmlns:dc="http://purl.org/dc/elements/1.1/"
   xmlns:cc="http://creativecommons.org/ns#"
   xmlns:rdf="http://www.w3.org/1999/02/22-rdf-syntax-ns#"
   xmlns:svg="http://www.w3.org/2000/svg"
   xmlns="http://www.w3.org/2000/svg"
   xmlns:sodipodi="http://sodipodi.sourceforge.net/DTD/sodipodi-0.dtd"
   xmlns:inkscape="http://www.inkscape.org/namespaces/inkscape"
   version="1.1"
   id="Capa_1"
   x="0px"
   y="0px"
   viewBox="0 0 142.79048 141.33946"
   xml:space="preserve"
   inkscape:version="0.91 r13725"
   sodipodi:docname="settings48.svg">
   <metadata
     id="metadata3379"><rdf:RDF><cc:Work
         rdf:about=""><dc:format>image/svg+xml</dc:format><dc:type
           rdf:resource="http://purl.org/dc/dcmitype/StillImage" /><dc:title></dc:title></cc:Work></rdf:RDF></metadata><defs
     id="defs3377" /><sodipodi:namedview
     id="namedview3375"
     inkscape:current-layer="Capa_1" /><g
     id="g3384"
     transform="scale(1.1880354,1.1880354)"><path
       d="m 7.8906967,43.425457 c 0.6317818,2.166109 1.5085402,4.254857 2.6173813,6.21467 L 7.3491695,53.62422 c -1.0314805,1.302244 -0.9154389,3.158909 0.2449766,4.332218 l 5.4410599,5.44106 c 1.173309,1.173309 3.029974,1.276328 4.332218,0.244848 l 3.958306,-3.133122 c 2.037174,1.173438 4.203283,2.088748 6.459646,2.733423 l 0.593102,5.092935 c 0.193402,1.650369 1.585901,2.888145 3.23627,2.888145 l 7.697423,0 c 1.650369,0 3.042867,-1.237905 3.23627,-2.888145 l 0.567314,-4.912426 c 2.423979,-0.631782 4.74481,-1.573008 6.923813,-2.797891 l 3.829371,3.029974 c 1.302244,1.031481 3.158909,0.915439 4.332218,-0.244976 l 5.44106,-5.44106 c 1.173309,-1.173309 1.276457,-3.029974 0.244976,-4.332218 l -2.9784,-3.777797 c 1.237777,-2.140451 2.20479,-4.422473 2.849465,-6.807771 l 4.590088,-0.528634 c 1.650498,-0.193403 2.888146,-1.585901 2.888146,-3.23627 l 0,-7.697423 c 0,-1.650369 -1.237777,-3.042868 -2.888146,-3.23627 l -4.52562,-0.528634 c -0.619017,-2.359512 -1.547221,-4.615875 -2.733295,-6.73041 l 2.784998,-3.519927 c 1.03148,-1.302244 0.915439,-3.158909 -0.244977,-4.332218 L 58.201286,7.8134646 C 57.027977,6.6401556 55.171312,6.5370075 53.869068,7.568488 l -3.416779,2.707636 C 48.234606,8.9738802 45.862072,7.9810802 43.373754,7.3106179 L 42.858014,2.8881453 C 42.664611,1.2377766 41.272113,0 39.621744,0 l -7.697423,0 c -1.650369,0 -3.042868,1.2377766 -3.23627,2.8881453 l -0.51574,4.4224726 C 25.619396,7.9939737 23.182524,9.0254542 20.913267,10.379272 L 17.367553,7.568488 C 16.065308,6.5370075 14.208644,6.6530491 13.035335,7.8134646 l -5.44106,5.4410594 c -1.173309,1.173309 -1.2764571,3.029974 -0.2449766,4.332218 l 2.9655066,3.75201 C 9.1286022,23.479074 8.2260568,25.761225 7.6329556,28.13363 L 2.8881453,28.675157 C 1.2377766,28.86856 0,30.261059 0,31.911427 l 0,7.697423 c 0,1.650369 1.2377766,3.042868 2.8881453,3.23627 l 5.0025514,0.580337 z M 35.77935,22.602445 c 7.014067,0 12.725891,5.711823 12.725891,12.72589 0,7.014068 -5.711824,12.725891 -12.725891,12.725891 -7.013938,0 -12.72589,-5.711823 -12.72589,-12.725891 0,-7.014067 5.711823,-12.72589 12.72589,-12.72589 z"
       id="path3339"
       inkscape:connector-curvature="0" /><path
       d="m 111.87669,45.320803 -4.06145,-3.429673 c -1.25054,-1.057268 -3.09444,-1.005694 -4.28052,0.116041 l -2.24347,2.101642 c -1.895212,-0.915439 -3.906599,-1.560114 -5.982583,-1.934026 l -0.631524,-3.094441 c -0.322337,-1.598795 -1.80509,-2.707637 -3.42993,-2.578702 l -5.299231,0.451273 c -1.624582,0.141829 -2.901039,1.46986 -2.952613,3.107335 l -0.103019,3.146016 c -2.037303,0.734929 -3.958435,1.740623 -5.711952,3.004186 l -2.68172,-1.779303 c -1.36697,-0.902546 -3.184825,-0.644676 -4.241964,0.605994 l -3.429672,4.087242 c -1.057397,1.25067 -1.005823,3.094441 0.115783,4.280644 l 2.346747,2.501211 c -0.81242,1.830878 -1.392627,3.752139 -1.727729,5.724717 l -3.352312,0.683355 c -1.598795,0.322338 -2.707636,1.805091 -2.578701,3.429802 l 0.451272,5.299231 c 0.141829,1.624582 1.46986,2.901039 3.107335,2.952613 l 3.623076,0.115912 c 0.657826,1.72773 1.521562,3.365334 2.565807,4.899533 l -2.024151,3.055761 c -0.902546,1.366711 -0.644676,3.184696 0.605866,4.241963 l 4.061454,3.429673 c 1.250799,1.057267 3.094441,1.005693 4.280773,-0.116042 l 2.656062,-2.488446 c 1.740623,0.81229 3.571372,1.418285 5.453824,1.779303 l 0.735059,3.635969 c 0.322338,1.598795 1.805091,2.707636 3.429673,2.578701 l 5.299231,-0.451272 c 1.624581,-0.141829 2.901038,-1.469731 2.952612,-3.107335 l 0.116042,-3.558737 c 1.934025,-0.683356 3.764775,-1.611688 5.453825,-2.759081 l 2.92695,1.934026 c 1.36672,0.902545 3.18457,0.644675 4.24197,-0.605995 l 3.42967,-4.061455 c 1.05714,-1.25067 1.00556,-3.094441 -0.11604,-4.280644 l -2.35964,-2.501211 c 0.86399,-1.830878 1.4959,-3.764904 1.85666,-5.750632 l 3.22338,-0.657569 c 1.59879,-0.322338 2.70764,-1.805091 2.5787,-3.429802 l -0.45127,-5.299231 c -0.14183,-1.624581 -1.46986,-2.901039 -3.10734,-2.952613 l -3.23627,-0.103148 c -0.67059,-1.882452 -1.57313,-3.661626 -2.69474,-5.312124 l 1.76628,-2.656062 c 0.92846,-1.366454 0.67059,-3.197332 -0.58021,-4.254599 z M 91.904911,75.955644 c -5.724717,0.490082 -10.779229,-3.777797 -11.25616,-9.502385 -0.490082,-5.724717 3.777926,-10.7791 9.502385,-11.25616 5.724717,-0.489953 10.779224,3.777926 11.256164,9.502514 0.49008,5.724846 -3.77793,10.7791 -9.502389,11.256031 z"
       id="path3341"
       inkscape:connector-curvature="0" /><path
       d="m 26.431558,90.21599 c -1.624581,0.167616 -2.875251,1.534199 -2.888145,3.171803 l -0.03868,3.262057 c -0.02579,1.637475 1.186202,3.029974 2.810784,3.236399 l 2.398192,0.309311 c 0.399699,1.4571 0.967013,2.8496 1.701943,4.16474 l -1.547221,1.90823 c -1.03148,1.27633 -0.954119,3.10734 0.193403,4.28065 l 2.28215,2.33372 c 1.147522,1.17331 2.9784,1.30225 4.280644,0.29655 l 1.921004,-1.48275 c 1.353818,0.7994 2.785126,1.43131 4.280644,1.86956 l 0.25787,2.47555 c 0.167615,1.62458 1.534327,2.87525 3.171802,2.88815 l 3.262186,0.0387 c 1.637346,0.0258 3.029974,-1.1862 3.23627,-2.81079 l 0.296551,-2.34661 c 1.62471,-0.39983 3.171931,-1.0057 4.641662,-1.8051 l 1.805091,1.45697 c 1.276457,1.03148 3.107464,0.95412 4.280773,-0.1934 l 2.333724,-2.28215 c 1.173309,-1.1474 1.302244,-2.9784 0.29668,-4.28065 l -1.379863,-1.79232 c 0.850971,-1.41829 1.508669,-2.92683 1.959942,-4.51273 l 2.140322,-0.21919 c 1.624581,-0.16762 2.875123,-1.534327 2.888145,-3.171802 l 0.03855,-3.262186 c 0.02592,-1.637346 -1.186074,-3.029974 -2.810656,-3.23627 L 66.15645,90.241648 c -0.399698,-1.573007 -0.992671,-3.094441 -1.766281,-4.512727 l 1.302244,-1.598794 c 1.031481,-1.276457 0.95412,-3.107335 -0.193403,-4.280644 L 63.216989,77.515758 C 62.069467,76.34232 60.238331,76.213385 58.936216,77.219207 l -1.560243,1.199096 C 55.906242,77.528652 54.333105,76.845296 52.682866,76.38113 L 52.47644,74.356849 c -0.167615,-1.624711 -1.534198,-2.875252 -3.171802,-2.888145 l -3.262057,-0.03868 c -1.637475,-0.02579 -3.029974,1.186203 -3.236399,2.810785 l -0.25787,2.011515 c -1.701814,0.438251 -3.339289,1.108842 -4.860723,1.985471 l -1.611688,-1.315137 c -1.276457,-1.031481 -3.107464,-0.953991 -4.280773,0.193402 l -2.346618,2.295173 c -1.173309,1.147393 -1.302244,2.9784 -0.296551,4.280515 l 1.379605,1.779433 c -0.799397,1.418286 -1.431179,2.926697 -1.843771,4.512727 l -2.256235,0.232083 z m 21.055096,-3.687671 c 4.680342,0.05157 8.432224,3.906861 8.380779,8.587204 -0.05157,4.680342 -3.906862,8.432227 -8.587204,8.380777 -4.680343,-0.0516 -8.432224,-3.906731 -8.380779,-8.587202 0.0517,-4.680214 3.906861,-8.432224 8.587204,-8.380779 z"
       id="path3343"
       inkscape:connector-curvature="0" /></g><g
     id="g3345"
     transform="translate(-0.80814125,-5.5441452)" /><g
     id="g3347"
     transform="translate(-0.80814125,-5.5441452)" /><g
     id="g3349"
     transform="translate(-0.80814125,-5.5441452)" /><g
     id="g3351"
     transform="translate(-0.80814125,-5.5441452)" /><g
     id="g3353"
     transform="translate(-0.80814125,-5.5441452)" /><g
     id="g3355"
     transform="translate(-0.80814125,-5.5441452)" /><g
     id="g3357"
     transform="translate(-0.80814125,-5.5441452)" /><g
     id="g3359"
     transform="translate(-0.80814125,-5.5441452)" /><g
     id="g3361"
     transform="translate(-0.80814125,-5.5441452)" /><g
     id="g3363"
     transform="translate(-0.80814125,-5.5441452)" /><g
     id="g3365"
     transform="translate(-0.80814125,-5.5441452)" /><g
     id="g3367"
     transform="translate(-0.80814125,-5.5441452)" /><g
     id="g3369"
     transform="translate(-0.80814125,-5.5441452)" /><g
     id="g3371"
     transform="translate(-0.80814125,-5.5441452)" /><g
     id="g3373"
     transform="translate(-0.80814125,-5.5441452)" /></svg>